<svg xmlns="http://www.w3.org/2000/svg" viewBox="0 0 48 56" fill="none" role="img" aria-label="PersianMap">
  <path
    fill="#0D9488"
    fill-rule="evenodd"
    d="M24 1.75c11.874 0 21.5 9.626 21.5 21.5 0 7.45-8.02 18.38-18.62 28.55a2.35 2.35 0 0 1-3.76 0C12.52 41.63 2.5 30.7 2.5 23.25 2.5 11.376 12.126 1.75 24 1.75Zm-5.25 12.1h5.1c4.03 0 7.3 3.27 7.3 7.3 0 2.86-1.65 5.33-4.05 6.53v.12h4.05v4.25h-4.05v3.55h-4.75v-3.55h1.75c2.34 0 4.25-1.91 4.25-4.25 0-2.34-1.91-4.25-4.25-4.25h-1.35v11.05h-4.75V13.85Z"
  />
</svg>
